<svg width="23" height="26" viewBox="0 0 23 26" fill="none" xmlns="http://www.w3.org/2000/svg">
<path d="M20.3742 2.92089H19.1439V0.460449H16.6835V2.92089H6.84177V0.460449H4.38133V2.92089H3.15111C1.78557 2.92089 0.702976 4.02808 0.702976 5.38132L0.690674 22.6044C0.690674 23.9576 1.78557 25.0648 3.15111 25.0648H20.3742C21.7274 25.0648 22.8346 23.9576 22.8346 22.6044V5.38132C22.8346 4.02808 21.7274 2.92089 20.3742 2.92089ZM20.3742 22.6044H3.15111V10.3022H20.3742V22.6044ZM20.3742 7.84176H3.15111V5.38132H20.3742V7.84176ZM8.07198 15.2231H5.61155V12.7626H8.07198V15.2231ZM12.9929 15.2231H10.5324V12.7626H12.9929V15.2231ZM17.9137 15.2231H15.4533V12.7626H17.9137V15.2231ZM8.07198 20.1439H5.61155V17.6835H8.07198V20.1439ZM12.9929 20.1439H10.5324V17.6835H12.9929V20.1439ZM17.9137 20.1439H15.4533V17.6835H17.9137V20.1439Z" fill="#FEC875"/>
</svg>
