<svg width="20" height="21" viewBox="0 0 20 21" fill="none" xmlns="http://www.w3.org/2000/svg">
<path d="M4.83655 5.17826H5.11902C5.5483 5.17826 5.89628 4.83016 5.89628 4.401V2.25609V1.45379C5.89628 1.02463 5.5483 0.676575 5.11902 0.676575H4.83655C4.4073 0.676575 4.05933 1.02463 4.05933 1.45379V2.25614V4.401C4.05933 4.83016 4.4073 5.17826 4.83655 5.17826Z" fill="#0165C3"/>
<path d="M14.8075 5.15928H15.0899C15.5192 5.15928 15.8671 4.81122 15.8671 4.38202V2.0528V1.43477C15.8671 1.00565 15.5192 0.657593 15.0899 0.657593H14.8075C14.3781 0.657593 14.0302 1.00565 14.0302 1.43477V2.0528V4.38198C14.0302 4.81122 14.3782 5.15928 14.8075 5.15928Z" fill="#0165C3"/>
<path d="M18.4934 2.25604H16.4986V4.58522C16.4986 5.3622 15.8666 5.79075 15.0897 5.79075H14.8072C14.0302 5.79075 13.3981 5.15863 13.3981 4.38165V2.25604H6.52925V4.40091C6.52925 5.17789 5.89718 5.81 5.1202 5.81H4.83773C4.0608 5.81 3.42872 5.17789 3.42872 4.40091V2.25604H1.27652C0.579793 2.25604 0.0129395 2.8229 0.0129395 3.51967V18.7884C0.0129395 19.4852 0.579793 20.0521 1.27652 20.0521H18.4934C19.1902 20.0521 19.757 19.4852 19.757 18.7884V3.51967C19.7571 2.82294 19.1902 2.25604 18.4934 2.25604ZM18.4934 18.7884H1.27656L1.27652 7.25786H18.4937L18.4943 18.7884C18.4943 18.7884 18.494 18.7884 18.4934 18.7884Z" fill="#0165C3"/>
<path d="M10.5392 11.1259H12.808C12.898 11.1259 12.9709 11.053 12.9709 10.9631V8.99843C12.9709 8.90849 12.898 8.83557 12.808 8.83557H10.5392C10.4493 8.83557 10.3763 8.90849 10.3763 8.99843V10.9631C10.3763 11.053 10.4493 11.1259 10.5392 11.1259Z" fill="#0165C3"/>
<path d="M14.2417 11.1259H16.5106C16.6005 11.1259 16.6734 11.053 16.6734 10.9631V8.99843C16.6734 8.90849 16.6005 8.83557 16.5106 8.83557H14.2417C14.1518 8.83557 14.0789 8.90849 14.0789 8.99843V10.9631C14.0789 11.053 14.1518 11.1259 14.2417 11.1259Z" fill="#0165C3"/>
<path d="M3.13112 14.3423H5.39992C5.48985 14.3423 5.56277 14.2693 5.56277 14.1794V12.2147C5.56277 12.1248 5.48985 12.0519 5.39992 12.0519H3.13112C3.04118 12.0519 2.96826 12.1248 2.96826 12.2147V14.1794C2.96826 14.2693 3.04118 14.3423 3.13112 14.3423Z" fill="#0165C3"/>
<path d="M6.83363 14.3423H9.10243C9.19237 14.3423 9.26528 14.2693 9.26528 14.1794V12.2147C9.26528 12.1248 9.19237 12.0519 9.10243 12.0519H6.83363C6.74369 12.0519 6.67078 12.1248 6.67078 12.2147V14.1794C6.67078 14.2693 6.74369 14.3423 6.83363 14.3423Z" fill="#0165C3"/>
<path d="M10.5392 14.3423H12.808C12.8979 14.3423 12.9709 14.2693 12.9709 14.1794V12.2147C12.9709 12.1248 12.8979 12.0519 12.808 12.0519H10.5392C10.4493 12.0519 10.3763 12.1248 10.3763 12.2147V14.1794C10.3763 14.2693 10.4493 14.3423 10.5392 14.3423Z" fill="#0165C3"/>
<path d="M14.2417 14.3423H16.5106C16.6005 14.3423 16.6734 14.2694 16.6734 14.1795V12.2148C16.6734 12.1249 16.6005 12.0519 16.5106 12.0519H14.2417C14.1518 12.0519 14.0789 12.1249 14.0789 12.2148V14.1795C14.0789 14.2694 14.1518 14.3423 14.2417 14.3423Z" fill="#0165C3"/>
<path d="M5.39987 15.268H3.13112C3.04118 15.268 2.96826 15.3409 2.96826 15.4309V17.3955C2.96826 17.4855 3.04118 17.5584 3.13112 17.5584H5.39991C5.48985 17.5584 5.56277 17.4855 5.56277 17.3955V15.4309C5.56273 15.3409 5.48981 15.268 5.39987 15.268Z" fill="#0165C3"/>
<path d="M9.10243 15.268H6.83363C6.74369 15.268 6.67078 15.3409 6.67078 15.4309V17.3955C6.67078 17.4855 6.74369 17.5584 6.83363 17.5584H9.10243C9.19237 17.5584 9.26528 17.4855 9.26528 17.3955V15.4309C9.26528 15.3409 9.19237 15.268 9.10243 15.268Z" fill="#0165C3"/>
<path d="M12.808 15.268H10.5392C10.4493 15.268 10.3763 15.3409 10.3763 15.4309V17.3955C10.3763 17.4855 10.4493 17.5584 10.5392 17.5584H12.808C12.898 17.5584 12.9709 17.4855 12.9709 17.3955V15.4309C12.9709 15.3409 12.898 15.268 12.808 15.268Z" fill="#0165C3"/>
<path d="M16.5106 15.2679H14.2417C14.1518 15.2679 14.0789 15.3409 14.0789 15.4308V17.3955C14.0789 17.4854 14.1518 17.5583 14.2417 17.5583H16.5106C16.6005 17.5583 16.6734 17.4854 16.6734 17.3955V15.4308C16.6734 15.3409 16.6005 15.2679 16.5106 15.2679Z" fill="#0165C3"/>
</svg>
