<svg width="39" height="32" viewBox="0 0 39 32" fill="none" xmlns="http://www.w3.org/2000/svg">
<path d="M19.2 11.2C15.68 11.2 12.8 14.08 12.8 17.6C12.8 21.12 15.68 24 19.2 24C22.72 24 25.6 21.12 25.6 17.6C25.6 14.08 22.72 11.2 19.2 11.2Z" fill="#3246D2"/>
<path d="M35.2 6.4H31.04C29.92 6.4 28.96 5.84 28.32 4.96L26.48 2.16C25.92 0.8 24.56 0 23.12 0H15.28C13.84 0 12.48 0.8 11.84 2.16L10 4.96C9.44 5.84 8.4 6.4 7.28 6.4H3.2C1.44 6.4 0 7.84 0 9.6V28.8C0 30.56 1.44 32 3.2 32H35.2C36.96 32 38.4 30.56 38.4 28.8V9.6C38.4 7.84 36.96 6.4 35.2 6.4ZM19.2 27.2C13.92 27.2 9.6 22.88 9.6 17.6C9.6 12.32 13.92 8 19.2 8C24.48 8 28.8 12.32 28.8 17.6C28.8 22.88 24.48 27.2 19.2 27.2Z" fill="#3246D2"/>
</svg>
