<svg width="17" height="18" viewBox="0 0 17 18" fill="none" xmlns="http://www.w3.org/2000/svg">
<path d="M12.875 5.75C12.875 4.49022 12.3746 3.28204 11.4838 2.39124C10.593 1.50045 9.38478 1 8.12501 1C6.86523 1 5.65704 1.50045 4.76625 2.39124C3.87545 3.28204 3.375 4.49022 3.375 5.75C3.375 11.2917 1 12.875 1 12.875H15.25C15.25 12.875 12.875 11.2917 12.875 5.75Z" stroke="#FCBF03" stroke-width="1.78125" stroke-linecap="round" stroke-linejoin="round"/>
<path d="M9.49454 16.0417C9.35536 16.2816 9.15558 16.4808 8.91522 16.6192C8.67485 16.7577 8.40234 16.8305 8.12495 16.8305C7.84757 16.8305 7.57506 16.7577 7.33469 16.6192C7.09433 16.4808 6.89455 16.2816 6.75537 16.0417" stroke="#FCBF03" stroke-width="1.78125" stroke-linecap="round" stroke-linejoin="round"/>
</svg>
