<svg width="22" height="22" viewBox="0 0 22 22" fill="none" xmlns="http://www.w3.org/2000/svg">
<path d="M15.2892 13.6429H14.3581L14.0281 13.3247C15.1831 11.9811 15.8785 10.2368 15.8785 8.3393C15.8785 4.10823 12.4489 0.678589 8.21778 0.678589C3.98671 0.678589 0.557068 4.10823 0.557068 8.3393C0.557068 12.5704 3.98671 16 8.21778 16C10.1153 16 11.8596 15.3047 13.2031 14.1497L13.5214 14.4797V15.4107L19.4142 21.2918L21.1703 19.5357L15.2892 13.6429ZM8.21778 13.6429C5.28314 13.6429 2.91421 11.2739 2.91421 8.3393C2.91421 5.40466 5.28314 3.03573 8.21778 3.03573C11.1524 3.03573 13.5214 5.40466 13.5214 8.3393C13.5214 11.2739 11.1524 13.6429 8.21778 13.6429Z" fill="black" fill-opacity="0.6"/>
</svg>
