<svg width="23" height="27" viewBox="0 0 23 27" fill="none" xmlns="http://www.w3.org/2000/svg">
<path d="M10.3562 0.693481C11.8327 0.693481 13.0597 1.89963 13.0597 3.37612C13.0597 4.85261 11.8535 6.07956 10.377 6.07956C8.90054 6.07956 7.6736 4.87341 7.6736 3.39692C7.6736 1.92043 8.85895 0.693481 10.3562 0.693481ZM22.8544 6.39149L19.5271 3.87522L19.132 5.16455L17.1772 4.51988L14.9729 11.2161L11.292 11.2577L8.21428 6.07956C7.98553 5.66364 7.54882 5.43489 7.00814 5.45569C6.92495 5.45569 6.50904 5.55967 6.44665 5.58046C4.17993 6.32911 2.3915 9.90596 2.4123 13.5868C2.3915 14.689 2.4123 15.6456 2.49548 16.519C2.4123 17.5796 3.03617 18.6401 4.09675 19.0145C4.36709 19.1184 4.63743 19.16 4.92857 19.16H11.6248L11.6456 25.4611C11.6456 26.3345 12.3318 27 13.1844 27C14.0579 27 14.7233 26.3137 14.7233 25.4611L14.7025 17.6004C14.7025 17.2052 14.557 16.7893 14.2242 16.5398C13.9331 16.2486 13.538 16.0615 13.1637 16.0615H8.65099V12.6926L6.30108 8.72061C6.19711 8.57504 6.28029 8.34628 6.40506 8.24231C6.55063 8.13833 6.77938 8.22151 6.88336 8.34628L9.566 12.9629C9.77396 13.3164 10.1275 13.566 10.585 13.566H15.2016C15.7007 13.566 16.1374 13.2541 16.283 12.7966L20.3174 14.1067L20.4629 14.1483L20.4837 14.1067L23 6.39149H22.8544ZM20.1302 13.6284L16.3246 12.4014C16.3246 11.8608 15.9087 11.3825 15.4096 11.2577L17.4268 5.08137L22.4177 6.72422L20.1302 13.6284ZM0 21.2812V19.8671L10.9593 19.8879V21.302L0 21.2812Z" fill="white"/>
</svg>
