<svg width="25" height="20" viewBox="0 0 25 20" fill="none" xmlns="http://www.w3.org/2000/svg">
<path d="M16.5139 2.81129C18.1811 2.81129 19.5308 4.16098 19.5308 5.82825C19.5308 7.49551 18.1811 8.8452 16.5139 8.8452C14.8466 8.8452 13.4969 7.49551 13.4969 5.82825C13.4969 4.16098 14.8466 2.81129 16.5139 2.81129ZM20.3049 9.61929H13.4175C12.4251 9.61929 11.4525 9.75823 10.738 10.7308C10.4204 11.2072 7.56224 14.8196 7.56224 14.8196H3.53301C2.81847 14.8196 2.22302 15.415 2.22302 16.1296C2.22302 16.8441 2.81847 17.4396 3.53301 17.4396H8.11799C8.45542 17.4396 8.79284 17.3006 9.03102 17.0624L11.7106 13.8073C11.7899 13.7279 11.8495 13.6882 11.9686 13.6882C12.1869 13.6882 12.3457 13.8271 12.3457 14.0653V20H20.682V14.1447C20.682 13.9264 20.821 13.7676 21.0591 13.7676C21.2775 13.7676 21.4363 13.9065 21.4363 14.1447V20H24.0761V13.4103C24.096 11.3263 22.389 9.61929 20.3049 9.61929ZM0.833633 11.0285C0.833633 11.0285 0.833633 10.6911 0.833633 10.6316H5.73619C5.65679 10.7705 5.6171 10.9491 5.5774 11.0881C5.5377 11.3263 5.55755 11.5247 5.6171 11.7232L1.50848 11.7034C1.13136 11.7034 0.833633 11.4056 0.833633 11.0285ZM6.25224 2.17614C6.25224 2.87084 6.2324 9.10323 6.2324 9.79793H1.54817L4.48574 7.35657L4.46589 2.17614C4.74377 2.17614 5.99422 2.17614 6.25224 2.17614ZM6.70876 11.7232H6.51027C6.39118 11.6041 6.35149 11.4255 6.39118 11.2469C6.45073 10.9293 6.68891 10.6514 6.78815 10.6117C6.94694 10.5522 7.06603 10.4132 7.06603 10.2346L7.08588 1.77917C7.08588 1.56084 6.90724 1.36236 6.66906 1.36236C6.66906 1.36236 4.9621 1.36236 4.48574 1.36236C4.48574 0.965389 4.48574 0.409634 4.48574 0.409634C4.48574 0.250847 4.3865 0.0920601 4.24756 0.0325149C4.10862 -0.0270303 3.91013 -0.00718201 3.81089 0.111908L0.932875 2.95023C0.416816 3.44644 0.0396968 4.39916 0.0396968 5.09386L0 11.0285C0 11.8622 0.674845 12.537 1.48863 12.537L6.68891 12.5569C6.90724 12.5569 7.10573 12.3782 7.10573 12.14C7.10573 11.9019 6.94694 11.7232 6.70876 11.7232Z" fill="white"/>
</svg>
