<svg width="17" height="19" viewBox="0 0 17 19" fill="none" xmlns="http://www.w3.org/2000/svg">
<path d="M8.41814 0C8.04977 0 7.7512 0.298571 7.7512 0.666939V13.5094L5.4712 11.2294C5.2114 10.9696 4.78875 10.9696 4.52895 11.2294C4.26916 11.4892 4.26916 11.9118 4.52895 12.1716L7.94508 15.5878C8.07304 15.7157 8.24365 15.7816 8.41426 15.7816C8.58487 15.7816 8.75548 15.7157 8.88344 15.5878L12.2996 12.1716C12.5594 11.9118 12.5594 11.4892 12.2996 11.2294C12.0398 10.9696 11.6171 10.9696 11.3573 11.2294L9.07732 13.5094V0.663061C9.0812 0.294694 8.7865 0 8.41814 0Z" fill="white"/>
<path d="M16.8363 18.3369V14.471C16.8363 14.1026 16.5378 13.8041 16.1694 13.8041C15.801 13.8041 15.5024 14.1026 15.5024 14.471V17.6739H1.33V14.471C1.33 14.1026 1.03143 13.8041 0.666939 13.8041C0.302449 13.8041 0 14.1026 0 14.471V18.3369C0 18.7053 0.298571 19 0.666939 19H16.1694C16.5378 19 16.8363 18.7053 16.8363 18.3369Z" fill="white"/>
</svg>
