<svg width="18" height="18" viewBox="0 0 18 18" fill="none" xmlns="http://www.w3.org/2000/svg">
<path d="M17.4862 0H12.5733C12.2879 0 12.0596 0.22833 12.0596 0.513742C12.0596 0.799154 12.2879 1.02748 12.5733 1.02748H16.2456L8.32641 8.94672C8.12472 9.14841 8.12472 9.47188 8.32641 9.67357C8.42535 9.77252 8.55854 9.82579 8.68793 9.82579C8.81732 9.82579 8.95051 9.77632 9.04945 9.67357L16.9725 1.75433V5.42664C16.9725 5.71205 17.2008 5.94038 17.4862 5.94038C17.7717 5.94038 18 5.71205 18 5.42664V0.513742C18 0.22833 17.7717 0 17.4862 0Z" fill="#3246D2"/>
<path d="M17.4863 8.79831C17.2008 8.79831 16.9725 9.02664 16.9725 9.31205V14.2934C16.9725 15.77 15.77 16.9725 14.2934 16.9725H3.70655C2.23002 16.9725 1.02748 15.77 1.02748 14.2934V3.70655C1.02748 2.23002 2.23002 1.02748 3.70655 1.02748H8.64989C8.93531 1.02748 9.16364 0.799154 9.16364 0.513742C9.16364 0.22833 8.93531 0 8.64989 0H3.70655C1.663 0 0 1.663 0 3.70655V14.2934C0 16.337 1.663 18 3.70655 18H14.2934C16.337 18 18 16.337 18 14.2934V9.31205C18 9.02664 17.7717 8.79831 17.4863 8.79831Z" fill="#3246D2"/>
</svg>
