<svg width="21" height="24" viewBox="0 0 21 24" fill="none" xmlns="http://www.w3.org/2000/svg">
<path d="M4.66667 4.99998V1.49998C4.66667 1.19056 4.78958 0.893814 5.00838 0.675022C5.22717 0.456229 5.52391 0.333313 5.83333 0.333313H19.8333C20.1428 0.333313 20.4395 0.456229 20.6583 0.675022C20.8771 0.893814 21 1.19056 21 1.49998V17.8333C21 18.1427 20.8771 18.4395 20.6583 18.6583C20.4395 18.8771 20.1428 19 19.8333 19H16.3333V22.5C16.3333 23.144 15.8083 23.6666 15.1585 23.6666H1.17483C1.02098 23.6676 0.868463 23.6381 0.726043 23.5799C0.583622 23.5217 0.454105 23.4359 0.344935 23.3275C0.235765 23.2191 0.149092 23.0902 0.0898966 22.9482C0.0307015 22.8061 0.000150937 22.6538 0 22.5L0.00350002 6.16665C0.00350002 5.52265 0.5285 4.99998 1.17833 4.99998H4.66667ZM7 4.99998H16.3333V16.6666H18.6667V2.66665H7V4.99998ZM4.66667 10.8333V13.1666H11.6667V10.8333H4.66667ZM4.66667 15.5V17.8333H11.6667V15.5H4.66667Z" fill="white"/>
</svg>
