<svg width="20" height="26" viewBox="0 0 20 26" fill="none" xmlns="http://www.w3.org/2000/svg">
<path d="M16.0886 17.1586C13.9319 17.1586 12.1771 18.9629 12.1771 21.1808C12.1771 23.3987 13.9319 25.2029 16.0886 25.2029C18.2453 25.2029 20 23.3987 20 21.1808C20 18.9629 18.2453 17.1586 16.0886 17.1586ZM17.9691 21.4902H16.3895V23.1919C16.3895 23.3626 16.2547 23.5012 16.0886 23.5012C15.9225 23.5012 15.7877 23.3626 15.7877 23.1919V21.4902H14.2081C14.042 21.4902 13.9072 21.3516 13.9072 21.1808C13.9072 21.01 14.042 20.8714 14.2081 20.8714H15.7877V19.3244C15.7877 19.1536 15.9225 19.015 16.0886 19.015C16.2547 19.015 16.3895 19.1536 16.3895 19.3244V20.8714H17.9691C18.1352 20.8714 18.27 21.01 18.27 21.1808C18.27 21.3516 18.1352 21.4902 17.9691 21.4902Z" fill="white"/>
<path d="M0.00014854 0.258301V0.719972C0.00014854 5.75784 1.88572 10.0912 4.76093 11.6944V11.9955C1.88567 13.5987 9.87755e-05 17.9321 9.87755e-05 22.97V23.4317H14.1697V22.97C14.1697 17.9025 12.2522 13.5679 9.35029 11.9909V11.699C12.252 10.1219 14.1697 5.78719 14.1697 0.719923V0.258301H0H0.00014854ZM0.935919 1.18159H13.2341C13.1117 5.94729 11.122 9.85482 8.69095 11.0103L8.42692 11.1354V12.5561L8.691 12.6811C11.1219 13.8365 13.1115 17.7429 13.2341 22.5083H0.935919C1.05728 17.7696 3.01752 13.857 5.4265 12.678L5.68593 12.5514V11.1385L5.4265 11.0119C3.01762 9.83288 1.05723 5.92031 0.935919 1.18164V1.18159ZM11.4937 5.43734C8.64707 6.81154 5.34027 6.81302 2.7195 5.63969C3.44363 8.15509 4.88466 9.94545 6.58009 10.2413C6.50399 10.3425 6.45804 10.4679 6.45804 10.6042C6.45804 10.9383 6.72922 11.2095 7.06337 11.2095C7.39751 11.2095 7.6687 10.9383 7.6687 10.6042C7.6687 10.4698 7.62388 10.3464 7.54981 10.246C9.30038 9.95543 10.7859 8.06832 11.4937 5.43739V5.43734ZM7.06337 11.9523C6.72922 11.9523 6.45804 12.2235 6.45804 12.5576C6.45804 12.8918 6.72922 13.163 7.06337 13.163C7.39751 13.163 7.6687 12.8918 7.6687 12.5576C7.6687 12.2235 7.39751 11.9523 7.06337 11.9523ZM7.06337 13.8933C6.72922 13.8933 6.45804 14.1646 6.45804 14.4986C6.45804 14.8328 6.72922 15.1039 7.06337 15.1039C7.39751 15.1039 7.6687 14.8328 7.6687 14.4986C7.6687 14.1646 7.39751 13.8933 7.06337 13.8933ZM7.06337 15.8468C6.72922 15.8468 6.45804 16.118 6.45804 16.4521C6.45804 16.7861 6.72922 17.0574 7.06337 17.0574C7.39751 17.0574 7.6687 16.7861 7.6687 16.4521C7.6687 16.118 7.39751 15.8468 7.06337 15.8468ZM7.06955 17.8187C5.92263 17.8325 4.78707 19.0921 3.32325 21.5571H10.8837C9.37544 19.0369 8.21647 17.8048 7.06955 17.8187Z" fill="white"/>
</svg>
