<svg width="21" height="21" viewBox="0 0 21 21" fill="none" xmlns="http://www.w3.org/2000/svg">
<path d="M13.3 20.3H11.2C10.8288 20.2996 10.4729 20.152 10.2105 19.8895C9.94801 19.6271 9.80039 19.2712 9.8 18.9V15.4H11.2V18.9H13.3V15.4H14.7V12.6C14.6998 12.4144 14.626 12.2365 14.4947 12.1053C14.3635 11.974 14.1856 11.9002 14 11.9H7.89551L6.49551 7.70002H2.1C1.91441 7.70022 1.73648 7.77404 1.60525 7.90527C1.47402 8.0365 1.4002 8.21443 1.4 8.40002V12.6H2.8V18.9H5.6V14H7V18.9C6.99961 19.2712 6.85199 19.6271 6.58952 19.8895C6.32705 20.152 5.97118 20.2996 5.6 20.3H2.8C2.42882 20.2996 2.07295 20.152 1.81048 19.8895C1.54801 19.6271 1.40039 19.2712 1.4 18.9V14C1.02882 13.9996 0.672947 13.852 0.41048 13.5895C0.148014 13.3271 0.00038913 12.9712 0 12.6V8.40002C0.000611435 7.84325 0.222057 7.30946 0.615751 6.91577C1.00944 6.52208 1.54323 6.30063 2.1 6.30002H6.49551C6.7894 6.29978 7.0759 6.39213 7.31433 6.56395C7.55276 6.73577 7.731 6.97833 7.82376 7.2572L8.90449 10.5H14C14.5568 10.5006 15.0906 10.7221 15.4842 11.1158C15.8779 11.5095 16.0994 12.0433 16.1 12.6V15.4C16.0996 15.7712 15.952 16.1271 15.6895 16.3895C15.4271 16.652 15.0712 16.7996 14.7 16.8V18.9C14.6996 19.2712 14.552 19.6271 14.2895 19.8895C14.0271 20.152 13.6712 20.2996 13.3 20.3Z" fill="white"/>
<path d="M18.8999 20.3H17.4999V12.6H19.5999V8.40002C19.5996 8.21443 19.5258 8.0365 19.3946 7.90527C19.2634 7.77404 19.0854 7.70022 18.8999 7.70002H16.0999V6.30002H18.8999C19.4566 6.30063 19.9904 6.52208 20.3841 6.91577C20.7778 7.30946 20.9992 7.84325 20.9999 8.40002V12.6C20.9995 12.9712 20.8518 13.3271 20.5894 13.5895C20.3269 13.852 19.971 13.9996 19.5999 14H18.8999V20.3Z" fill="white"/>
<path d="M4.20019 5.6C3.64641 5.6 3.10505 5.43578 2.6446 5.12812C2.18414 4.82045 1.82526 4.38315 1.61333 3.87151C1.40141 3.35988 1.34596 2.7969 1.45399 2.25375C1.56203 1.7106 1.82871 1.21169 2.22029 0.820102C2.61188 0.428515 3.11079 0.161841 3.65394 0.0538025C4.19709 -0.0542361 4.76007 0.00121319 5.27171 0.213139C5.78334 0.425064 6.22064 0.783947 6.52831 1.2444C6.83598 1.70486 7.00019 2.24621 7.00019 2.8C6.99936 3.54235 6.70409 4.25406 6.17917 4.77898C5.65425 5.3039 4.94254 5.59917 4.20019 5.6ZM4.20019 1.4C3.9233 1.4 3.65262 1.48211 3.4224 1.63594C3.19217 1.78978 3.01272 2.00843 2.90676 2.26424C2.8008 2.52006 2.77307 2.80155 2.82709 3.07313C2.88111 3.3447 3.01445 3.59416 3.21024 3.78995C3.40604 3.98574 3.65549 4.11908 3.92707 4.1731C4.19864 4.22712 4.48013 4.1994 4.73595 4.09343C4.99177 3.98747 5.21042 3.80803 5.36425 3.5778C5.51809 3.34757 5.60019 3.07689 5.60019 2.8C5.5998 2.42882 5.45218 2.07295 5.18971 1.81048C4.92725 1.54801 4.57138 1.40039 4.20019 1.4Z" fill="white"/>
<path d="M16.8002 5.6C16.2464 5.6 15.7051 5.43578 15.2446 5.12812C14.7842 4.82045 14.4253 4.38315 14.2133 3.87151C14.0014 3.35988 13.946 2.7969 14.054 2.25375C14.162 1.7106 14.4287 1.21169 14.8203 0.820102C15.2119 0.428515 15.7108 0.161841 16.254 0.0538025C16.7971 -0.0542361 17.3601 0.00121319 17.8717 0.213139C18.3834 0.425064 18.8207 0.783947 19.1283 1.2444C19.436 1.70486 19.6002 2.24621 19.6002 2.8C19.5994 3.54235 19.3041 4.25406 18.7792 4.77898C18.2543 5.3039 17.5426 5.59917 16.8002 5.6ZM16.8002 1.4C16.5233 1.4 16.2526 1.48211 16.0224 1.63594C15.7922 1.78978 15.6127 2.00843 15.5068 2.26424C15.4008 2.52006 15.3731 2.80155 15.4271 3.07313C15.4811 3.3447 15.6145 3.59416 15.8103 3.78995C16.0061 3.98574 16.2555 4.11908 16.5271 4.1731C16.7987 4.22712 17.0801 4.1994 17.336 4.09343C17.5918 3.98747 17.8104 3.80803 17.9643 3.5778C18.1181 3.34757 18.2002 3.07689 18.2002 2.8C18.1998 2.42882 18.0522 2.07295 17.7897 1.81048C17.5273 1.54801 17.1714 1.40039 16.8002 1.4Z" fill="white"/>
<path d="M12.2501 9.8C11.7655 9.8 11.2918 9.65631 10.8889 9.3871C10.486 9.11789 10.172 8.73525 9.98655 8.28757C9.80112 7.83989 9.7526 7.34728 9.84713 6.87202C9.94167 6.39677 10.175 5.96022 10.5176 5.61758C10.8603 5.27495 11.2968 5.0416 11.7721 4.94707C12.2473 4.85254 12.74 4.90106 13.1876 5.08649C13.6353 5.27192 14.0179 5.58595 14.2872 5.98885C14.5564 6.39175 14.7001 6.86543 14.7001 7.35C14.6993 7.99954 14.4409 8.62227 13.9816 9.08157C13.5223 9.54087 12.8996 9.79924 12.2501 9.8ZM12.2501 6.3C12.0424 6.3 11.8394 6.36158 11.6667 6.47695C11.494 6.59233 11.3595 6.75632 11.28 6.94818C11.2005 7.14004 11.1797 7.35116 11.2202 7.55484C11.2607 7.75852 11.3608 7.94561 11.5076 8.09246C11.6544 8.2393 11.8415 8.33931 12.0452 8.37982C12.2489 8.42033 12.46 8.39954 12.6519 8.32007C12.8437 8.2406 13.0077 8.10602 13.1231 7.93334C13.2385 7.76067 13.3001 7.55767 13.3001 7.35C13.2997 7.07161 13.189 6.80473 12.9922 6.60788C12.7953 6.41104 12.5284 6.30031 12.2501 6.3Z" fill="white"/>
</svg>
