<svg width="15" height="19" viewBox="0 0 15 19" fill="none" xmlns="http://www.w3.org/2000/svg">
<path d="M1.31333 0.0388832C0.839744 0.148832 0.381281 0.53524 0.153916 1.00882L0.013727 1.30432L0.00234015 9.03434C-0.00531333 14.2103 0.00607358 16.8248 0.0325808 16.9462C0.13861 17.4463 0.513817 17.9049 1.01017 18.1398L1.30194 18.2799L7.38366 18.2913C11.4419 18.299 13.5259 18.2876 13.6472 18.2611C14.2572 18.1323 14.818 17.579 14.9584 16.969C14.9849 16.859 15 15.0099 15 11.7246C15 6.84041 14.9963 6.63955 14.9279 6.49563C14.837 6.30616 8.63043 0.0956306 8.4712 0.0351505C8.33848 -0.0141315 1.52184 -0.010397 1.31333 0.0388832ZM7.23209 3.58936C7.23209 6.26453 7.23582 6.29869 7.44806 6.66624C7.61476 6.95036 7.92165 7.22327 8.24384 7.37858L8.53934 7.51877L11.2031 7.53015L13.8632 7.54154V12.1984C13.8632 15.73 13.8518 16.878 13.8176 16.9538C13.7191 17.1735 14.0943 17.1622 7.49734 17.1622C0.900412 17.1622 1.27543 17.1735 1.17706 16.9538C1.105 16.8023 1.11266 1.45609 1.18471 1.32728C1.29466 1.13016 1.20748 1.13781 4.326 1.13408H7.23227V3.58936H7.23209ZM10.9834 6.39333C8.45982 6.40099 8.48632 6.40472 8.4068 6.18874C8.38403 6.13181 8.36891 5.15813 8.36891 3.77509V1.45609L10.8318 3.91902L13.2948 6.38194L10.9834 6.39333Z" fill="#3246D2"/>
</svg>
