<svg width="21" height="20" viewBox="0 0 21 20" fill="none" xmlns="http://www.w3.org/2000/svg">
<path d="M18.9281 0H2.05245C0.920729 0 0 0.920729 0 2.05245V14.0251C0 15.1568 0.920729 16.0775 2.05245 16.0775H7.3546V18.6317H6.07753C5.69972 18.6317 5.39337 18.938 5.39337 19.3158C5.39337 19.6937 5.69967 20 6.07753 20C6.30324 20 14.1974 20 14.9031 20C15.2809 20 15.5872 19.6937 15.5872 19.3158C15.5872 18.938 15.2809 18.6317 14.9031 18.6317H13.626V16.0775H18.9281C20.0599 16.0775 20.9806 15.1568 20.9806 14.0251V2.05245C20.9806 0.920729 20.0599 0 18.9281 0ZM18.5291 12.9418C18.5291 13.3196 18.2228 13.626 17.8449 13.626H3.1357C2.75788 13.626 2.45153 13.3197 2.45153 12.9418V3.1357C2.45153 2.75788 2.75784 2.45153 3.1357 2.45153H17.8449C18.2228 2.45153 18.5291 2.75784 18.5291 3.1357V12.9418H18.5291Z" fill="white"/>
<path d="M3.8199 3.81982V12.2577H17.1608V3.81982H3.8199ZM11.7384 10.1775H5.68447C5.30665 10.1775 5.0003 9.87117 5.0003 9.49331C5.0003 9.1155 5.30661 8.80915 5.68447 8.80915H11.7384C12.1163 8.80915 12.4226 9.11546 12.4226 9.49331C12.4226 9.87117 12.1163 10.1775 11.7384 10.1775ZM11.7384 7.2683H5.68447C5.30665 7.2683 5.0003 6.962 5.0003 6.58414C5.0003 6.20628 5.30661 5.89998 5.68447 5.89998H11.7384C12.1163 5.89998 12.4226 6.20628 12.4226 6.58414C12.4226 6.962 12.1163 7.2683 11.7384 7.2683ZM15.3934 10.1775H14.0819C13.7041 10.1775 13.3977 9.87117 13.3977 9.49331C13.3977 9.1155 13.7041 8.80915 14.0819 8.80915H15.3934C15.7713 8.80915 16.0776 9.11546 16.0776 9.49331C16.0776 9.87117 15.7713 10.1775 15.3934 10.1775ZM15.3934 7.2683H14.0819C13.7041 7.2683 13.3977 6.962 13.3977 6.58414C13.3977 6.20628 13.7041 5.89998 14.0819 5.89998H15.3934C15.7713 5.89998 16.0776 6.20628 16.0776 6.58414C16.0776 6.962 15.7713 7.2683 15.3934 7.2683Z" fill="white"/>
</svg>
