<svg width="22" height="20" viewBox="0 0 22 20" fill="none" xmlns="http://www.w3.org/2000/svg">
<path d="M14.3218 7.27273C15.2005 7.27273 15.9128 7.985 15.9128 8.86364V14.999C15.9128 17.761 13.6737 20 10.9118 20C8.14985 20 5.91084 17.761 5.91084 14.999V8.86364C5.91084 7.985 6.62312 7.27273 7.50175 7.27273H14.3218ZM1.59091 7.27273L5.57464 7.27097C5.25656 7.65541 5.0513 8.13662 5.00962 8.66386L5.00175 8.86364V14.999C5.00175 16.0294 5.26542 16.9982 5.72897 17.8416C5.22805 18.0602 4.67424 18.1818 4.09204 18.1818C1.83207 18.1818 0 16.3498 0 14.0898V8.86364C0 7.985 0.712274 7.27273 1.59091 7.27273ZM16.249 7.27097L20.2273 7.27273C21.1059 7.27273 21.8182 7.985 21.8182 8.86364V14.0909C21.8182 16.3503 19.9866 18.1818 17.7273 18.1818C17.1463 18.1818 16.5936 18.0607 16.0931 17.8424L16.1437 17.7503C16.5334 17.0108 16.7709 16.1785 16.8145 15.2953L16.8218 14.999V8.86364C16.8218 8.25844 16.6068 7.70347 16.249 7.27097ZM10.9091 0C12.6664 0 14.0909 1.42455 14.0909 3.18182C14.0909 4.93909 12.6664 6.36364 10.9091 6.36364C9.15182 6.36364 7.72727 4.93909 7.72727 3.18182C7.72727 1.42455 9.15182 0 10.9091 0ZM18.1845 0.909091C19.6908 0.909091 20.9118 2.13013 20.9118 3.63636C20.9118 5.14259 19.6908 6.36364 18.1845 6.36364C16.6783 6.36364 15.4573 5.14259 15.4573 3.63636C15.4573 2.13013 16.6783 0.909091 18.1845 0.909091ZM3.63365 0.909091C5.13988 0.909091 6.36092 2.13013 6.36092 3.63636C6.36092 5.14259 5.13988 6.36364 3.63365 6.36364C2.12742 6.36364 0.906378 5.14259 0.906378 3.63636C0.906378 2.13013 2.12742 0.909091 3.63365 0.909091Z" fill="white"/>
</svg>
